<?xml version="1.0" encoding="utf-8"?>
<!-- Generator: Adobe Illustrator 24.1.3, SVG Export Plug-In . SVG Version: 6.00 Build 0)  -->
<svg version="1.1" id="Capa_1" xmlns="http://www.w3.org/2000/svg" xmlns:xlink="http://www.w3.org/1999/xlink" x="0px" y="0px"
	 viewBox="0 0 512 512" style="enable-background:new 0 0 512 512;" xml:space="preserve">
<style type="text/css">
	.st0{fill:#027FC2;}
</style>
<g>
	<g>
		<g>
			<path class="st0" d="M341.3,388.3c0,28.2,23,51.2,51.2,51.2s51.2-23,51.2-51.2s-23-51.2-51.2-51.2
				C364.3,337.1,341.3,360,341.3,388.3z M358.4,388.3c0-18.8,15.3-34.1,34.1-34.1c18.8,0,34.1,15.3,34.1,34.1
				c0,18.8-15.3,34.1-34.1,34.1C373.7,422.4,358.4,407.1,358.4,388.3z"/>
		</g>
	</g>
	<g>
		<g>
			<path class="st0" d="M51.2,388.3c0,28.2,23,51.2,51.2,51.2s51.2-23,51.2-51.2s-23-51.2-51.2-51.2S51.2,360,51.2,388.3z
				 M68.3,388.3c0-18.8,15.3-34.1,34.1-34.1c18.8,0,34.1,15.3,34.1,34.1c0,18.8-15.3,34.1-34.1,34.1
				C83.6,422.4,68.3,407.1,68.3,388.3z"/>
		</g>
	</g>
	<g>
		<g>
			<path class="st0" d="M0,294.4l0,93.9c0,4.7,3.8,8.5,8.5,8.5h51.2v-17.1H17.1v-82.8L90,183.5h80.7v196.3h-25.6v17.1h34.1
				c4.7,0,8.5-3.8,8.5-8.5V174.9c0-4.7-3.8-8.5-8.5-8.5H85.3c-2.9,0-5.6,1.5-7.2,3.9L1.4,289.8C0.5,291.2,0,292.8,0,294.4z"/>
		</g>
	</g>
	<g>
		<g>
			<path class="st0" d="M136.5,277.3H17.1v17.1h128c4.7,0,8.5-3.8,8.5-8.5v-76.8c0-4.7-3.8-8.5-8.5-8.5H68.3v17.1h68.3V277.3
				L136.5,277.3z"/>
		</g>
	</g>
	<g>
		<g>
			<path class="st0" d="M170.7,115.2v273.1c0,4.7,3.8,8.5,8.5,8.5h170.7v-17.1H187.7v-256h307.2v256h-59.7v17.1h68.3
				c4.7,0,8.5-3.8,8.5-8.5V115.2c0-4.7-3.8-8.5-8.5-8.5H179.2C174.5,106.7,170.7,110.5,170.7,115.2z"/>
		</g>
	</g>
	<g>
		<g>
			<rect x="452.3" y="345.6" class="st0" width="51.2" height="17.1"/>
		</g>
	</g>
	<g>
		<g>
			<rect x="187.7" y="345.6" class="st0" width="145.1" height="17.1"/>
		</g>
	</g>
	<g>
		<g>
			<rect x="8.5" y="345.6" class="st0" width="34.1" height="17.1"/>
		</g>
	</g>
	<g>
		<g>
			<rect x="179.2" y="140.8" class="st0" width="298.7" height="17.1"/>
		</g>
	</g>
	<g>
		<g>
			<rect x="384" y="379.7" class="st0" width="17.1" height="17.1"/>
		</g>
	</g>
	<g>
		<g>
			<rect x="93.9" y="379.7" class="st0" width="17.1" height="17.1"/>
		</g>
	</g>
	<g>
		<g>
			<rect x="358.4" y="72.5" class="st0" width="119.5" height="17.1"/>
		</g>
	</g>
	<g>
		<g>
			<rect x="494.9" y="72.5" class="st0" width="17.1" height="17.1"/>
		</g>
	</g>
</g>
</svg>
