<?xml version="1.0" encoding="utf-8"?>
<!-- Generator: Adobe Illustrator 24.1.3, SVG Export Plug-In . SVG Version: 6.00 Build 0)  -->
<svg version="1.1" id="Capa_1" xmlns="http://www.w3.org/2000/svg" xmlns:xlink="http://www.w3.org/1999/xlink" x="0px" y="0px"
	 viewBox="0 0 512 512" style="enable-background:new 0 0 512 512;" xml:space="preserve">
<style type="text/css">
	.st0{fill:#043D5D;}
</style>
<g>
	<path class="st0" d="M38.9,149.2H118c4.1,0,7.5-3.4,7.5-7.5s-3.4-7.5-7.5-7.5H38.9c-4.1,0-7.5,3.4-7.5,7.5S34.7,149.2,38.9,149.2z"
		/>
	<path class="st0" d="M115.3,185.3H84c-4.1,0-7.5,3.4-7.5,7.5s3.4,7.5,7.5,7.5h31.2c4.1,0,7.5-3.4,7.5-7.5S119.4,185.3,115.3,185.3z
		"/>
	<path class="st0" d="M7.5,237.3H84c4.1,0,7.5-3.4,7.5-7.5s-3.4-7.5-7.5-7.5H7.5c-4.1,0-7.5,3.4-7.5,7.5S3.4,237.3,7.5,237.3z"/>
	<path class="st0" d="M125.5,370.3c0-4.1-3.4-7.5-7.5-7.5H38.9c-4.1,0-7.5,3.4-7.5,7.5s3.4,7.5,7.5,7.5H118
		C122.1,377.8,125.5,374.4,125.5,370.3z"/>
	<path class="st0" d="M115.3,311.7H84c-4.1,0-7.5,3.4-7.5,7.5s3.4,7.5,7.5,7.5h31.2c4.1,0,7.5-3.4,7.5-7.5S119.4,311.7,115.3,311.7z
		"/>
	<path class="st0" d="M91.5,282.2c0-4.1-3.4-7.5-7.5-7.5H7.5c-4.1,0-7.5,3.4-7.5,7.5s3.4,7.5,7.5,7.5H84
		C88.2,289.7,91.5,286.3,91.5,282.2z"/>
	<path class="st0" d="M319.5,165.8c4.1,0,7.5-3.4,7.5-7.5v-11.4c0-4.1-3.4-7.5-7.5-7.5s-7.5,3.4-7.5,7.5v11.4
		C312,162.5,315.4,165.8,319.5,165.8z"/>
	<path class="st0" d="M402,173.5c-2.9-2.9-7.7-2.9-10.6,0l-8.1,8.1c-2.9,2.9-2.9,7.7,0,10.6c2.9,2.9,7.7,2.9,10.6,0l8.1-8.1
		C404.9,181.2,404.9,176.5,402,173.5z"/>
	<path class="st0" d="M417.2,248.5c-4.1,0-7.5,3.4-7.5,7.5s3.4,7.5,7.5,7.5h11.4c4.1,0,7.5-3.4,7.5-7.5s-3.4-7.5-7.5-7.5H417.2z"/>
	<path class="st0" d="M393.9,319.8c-2.9-2.9-7.7-2.9-10.6,0s-2.9,7.7,0,10.6l8.1,8.1c2.9,2.9,7.7,2.9,10.6,0s2.9-7.7,0-10.6
		L393.9,319.8z"/>
	<path class="st0" d="M312,353.7v11.4c0,4.1,3.4,7.5,7.5,7.5s7.5-3.4,7.5-7.5v-11.4c0-4.1-3.4-7.5-7.5-7.5S312,349.5,312,353.7z"/>
	<path class="st0" d="M245.2,319.8l-8.1,8.1c-2.9,2.9-2.9,7.7,0,10.6s7.7,2.9,10.6,0l8.1-8.1c2.9-2.9,2.9-7.7,0-10.6
		C252.8,316.8,248.1,316.8,245.2,319.8z"/>
	<path class="st0" d="M210.4,248.5c-4.1,0-7.5,3.4-7.5,7.5s3.4,7.5,7.5,7.5h11.4c4.1,0,7.5-3.4,7.5-7.5s-3.4-7.5-7.5-7.5H210.4z"/>
	<path class="st0" d="M255.8,181.6l-8.1-8.1c-2.9-2.9-7.7-2.9-10.6,0c-2.9,2.9-2.9,7.7,0,10.6l8.1,8.1c2.9,2.9,7.7,2.9,10.6,0
		C258.7,189.3,258.7,184.6,255.8,181.6z"/>
	<path class="st0" d="M359.9,256c0-4.1-3.4-7.5-7.5-7.5H327v-55.7c0-4.1-3.4-7.5-7.5-7.5s-7.5,3.4-7.5,7.5V256
		c0,4.1,3.4,7.5,7.5,7.5h32.8C356.5,263.5,359.9,260.1,359.9,256z"/>
	<path class="st0" d="M461.7,254.8c4.1-0.3,7.3-3.8,7-7.9c-4.8-78.7-70.3-140.4-149.2-140.4c-82.4,0-149.5,67-149.5,149.5
		s67.1,149.5,149.5,149.5c73.9,0,136.9-54.1,147.9-127.2c0.6-4.1-2.2-7.9-6.3-8.5c-4.1-0.6-7.9,2.2-8.5,6.3
		c-9.9,65.6-66.5,114.4-133,114.4C245.3,390.5,185,330.2,185,256s60.4-134.5,134.5-134.5c71,0,130,55.5,134.3,126.3
		C454.1,251.9,457.6,255,461.7,254.8L461.7,254.8z"/>
	<path class="st0" d="M319.5,63.5c-26.4,0-52.2,5.5-76,15.7H111.2c-4.1,0-7.5,3.4-7.5,7.5s3.4,7.5,7.5,7.5h104.1
		c-14.1,9.1-27,20-38.5,32.6c-2.8,3.1-2.5,7.8,0.5,10.6c3.1,2.8,7.8,2.5,10.6-0.5c33.6-37.1,81.6-58.4,131.6-58.4
		C417.4,78.5,497,158.1,497,256s-79.6,177.5-177.5,177.5S142,353.9,142,256c0-34.3,9.8-67.5,28.3-96.2c2.2-3.5,1.3-8.1-2.2-10.4
		c-3.5-2.2-8.1-1.3-10.4,2.2c-20.1,31.1-30.7,67.2-30.7,104.3c0,67.8,35.2,127.5,88.3,161.8H111.2c-4.1,0-7.5,3.4-7.5,7.5
		s3.4,7.5,7.5,7.5h132.2c23.4,10.1,49.1,15.7,76.1,15.7C425.7,448.5,512,362.1,512,256S425.7,63.5,319.5,63.5z"/>
</g>
</svg>
