<?xml version="1.0" encoding="utf-8"?>
<!-- Generator: Adobe Illustrator 24.1.3, SVG Export Plug-In . SVG Version: 6.00 Build 0)  -->
<svg version="1.1" id="Layer_1" xmlns="http://www.w3.org/2000/svg" xmlns:xlink="http://www.w3.org/1999/xlink" x="0px" y="0px"
	 viewBox="0 0 261.9 16.7" style="enable-background:new 0 0 261.9 16.7;" xml:space="preserve">
<style type="text/css">
	.st0{fill:#FFFFFF;stroke:#E0E0E0;stroke-width:0.67;}
	.st1{fill:#4E4E4E;}
	.st2{fill:#212121;}
	.st3{opacity:0.94;fill-rule:evenodd;clip-rule:evenodd;fill:#2A2C83;enable-background:new    ;}
	.st4{fill-rule:evenodd;clip-rule:evenodd;fill:#097A44;}
	.st5{fill-rule:evenodd;clip-rule:evenodd;fill:#F46F20;}
	.st6{fill:#FFFFFF;}
	.st7{fill:#F58220;}
	.st8{fill-rule:evenodd;clip-rule:evenodd;fill:#1A1919;}
	.st9{fill-rule:evenodd;clip-rule:evenodd;fill:#F58220;}
	.st10{fill:#CC0000;}
	.st11{fill:#FF9900;}
	.st12{fill-rule:evenodd;clip-rule:evenodd;fill:#F16D27;}
	.st13{fill:#1A1F71;}
	.st14{fill:#02B9EF;}
	.st15{fill:#06306F;}
</style>
<g>
	<g>
		<path class="st0" d="M254.9,0h-34c-0.3,0-0.6,0.1-0.7,0.3c-0.2,0.2-0.3,0.4-0.3,0.7v14.6c0,0.3,0.1,0.5,0.3,0.7
			c0.2,0.2,0.4,0.3,0.7,0.3h34c0.3,0,0.5-0.1,0.7-0.3c0.2-0.2,0.3-0.4,0.3-0.7V1c0-0.3-0.1-0.5-0.3-0.7C255.4,0.1,255.2,0,254.9,0
			L254.9,0z"/>
		<path class="st1" d="M233.7,6.4c0,0.3-0.2,0.6-0.4,0.8c-0.2,0.2-0.6,0.3-0.9,0.3c-0.2,0-0.5-0.1-0.7-0.2c-0.2-0.1-0.4-0.3-0.4-0.5
			c-0.1-0.2-0.2-0.5-0.2-0.8V5.7c0-0.3,0.1-0.5,0.2-0.8c0.1-0.2,0.3-0.4,0.5-0.5c0.2-0.1,0.4-0.2,0.7-0.2c0.3,0,0.6,0.1,0.9,0.3
			c0.2,0.2,0.4,0.5,0.4,0.8h-0.6c0-0.2-0.1-0.4-0.2-0.5c-0.1-0.1-0.3-0.2-0.5-0.2c-0.2,0-0.4,0.1-0.6,0.3c-0.1,0.2-0.2,0.5-0.2,0.8
			V6c0,0.3,0.1,0.6,0.2,0.8c0.1,0.2,0.3,0.3,0.5,0.3c0.2,0,0.4,0,0.5-0.2c0.1-0.1,0.2-0.3,0.2-0.5L233.7,6.4z M236,6.7h-1.2
			l-0.3,0.7h-0.6l1.3-3.2h0.5l1.2,3.2h-0.6L236,6.7z M234.9,6.2h0.9l-0.5-1.3L234.9,6.2z M238.9,6.6c0-0.1,0-0.1,0-0.2
			c0-0.1-0.1-0.1-0.1-0.2c-0.2-0.1-0.4-0.2-0.5-0.2c-0.2-0.1-0.4-0.1-0.6-0.3c-0.1-0.1-0.2-0.2-0.3-0.3c-0.1-0.1-0.1-0.3-0.1-0.4
			c0-0.1,0-0.2,0.1-0.4c0.1-0.1,0.1-0.2,0.2-0.3c0.2-0.1,0.5-0.2,0.8-0.2c0.2,0,0.4,0,0.6,0.1c0.2,0.1,0.3,0.2,0.4,0.3
			c0.1,0.2,0.2,0.3,0.1,0.5h-0.6c0-0.1,0-0.1,0-0.2c0-0.1-0.1-0.1-0.1-0.2c-0.3-0.2-0.6-0.2-0.9,0c-0.1,0-0.1,0.1-0.1,0.2
			c0,0.1,0,0.1,0,0.2c0,0.1,0,0.1,0,0.2c0,0,0.1,0.1,0.1,0.1c0.2,0.1,0.3,0.2,0.5,0.2c0.2,0.1,0.4,0.1,0.6,0.3
			c0.1,0.1,0.3,0.2,0.3,0.3c0.1,0.1,0.1,0.3,0.1,0.4c0,0.1,0,0.2-0.1,0.4c-0.1,0.1-0.1,0.2-0.2,0.3c-0.2,0.2-0.5,0.3-0.8,0.2
			c-0.2,0-0.4,0-0.6-0.1c-0.2-0.1-0.4-0.2-0.5-0.4c-0.1-0.1-0.2-0.3-0.2-0.5h0.6c0,0.1,0,0.2,0,0.2c0,0.1,0.1,0.1,0.1,0.2
			c0.1,0.1,0.3,0.2,0.5,0.2c0.2,0,0.3,0,0.4-0.1c0.1,0,0.1-0.1,0.1-0.1C238.8,6.8,238.9,6.7,238.9,6.6L238.9,6.6z M242.5,7.4H242V6
			h-1.4v1.4H240V4.2h0.6v1.4h1.4V4.2h0.6V7.4z M246.8,5.9c0,0.3,0,0.6-0.2,0.8c-0.1,0.2-0.3,0.4-0.5,0.5c-0.4,0.3-1,0.3-1.4,0
			c-0.2-0.1-0.4-0.3-0.5-0.5c-0.1-0.3-0.2-0.5-0.2-0.8V5.8c0-0.3,0-0.6,0.2-0.8c0.1-0.2,0.3-0.4,0.5-0.6c0.2-0.1,0.3-0.2,0.5-0.2
			c0.2,0,0.4,0,0.5,0c0.2,0.1,0.3,0.1,0.5,0.3c0.1,0.1,0.3,0.3,0.3,0.4c0.1,0.3,0.2,0.5,0.2,0.8L246.8,5.9z M246.3,5.8
			c0-0.3-0.1-0.6-0.2-0.8c-0.1-0.2-0.3-0.3-0.6-0.3c-0.1,0-0.2,0-0.3,0.1c-0.1,0-0.2,0.1-0.3,0.2c-0.1,0.2-0.2,0.5-0.2,0.8V6
			c0,0.3,0.1,0.6,0.2,0.8c0.1,0.1,0.1,0.2,0.3,0.2c0.1,0,0.2,0.1,0.3,0.1c0.1,0,0.2,0,0.3-0.1c0.1,0,0.2-0.1,0.3-0.2
			c0.2-0.2,0.2-0.5,0.2-0.8V5.8z M249.9,7.5h-0.6l-1.4-2.2v2.2h-0.6V4.2h0.6l1.4,2.3V4.2h0.6L249.9,7.5z M231.3,12.5V9.2h1
			c0.3,0,0.5,0.1,0.8,0.2c0.2,0.1,0.4,0.3,0.5,0.5c0.1,0.2,0.2,0.5,0.2,0.8v0.2c0,0.3-0.1,0.6-0.2,0.8c-0.1,0.2-0.3,0.4-0.5,0.5
			c-0.2,0.1-0.5,0.2-0.8,0.2L231.3,12.5z M231.8,9.7V12h0.4c0.1,0,0.2,0,0.4-0.1c0.1,0,0.2-0.1,0.3-0.2c0.2-0.2,0.3-0.5,0.2-0.8
			v-0.2c0-0.3-0.1-0.6-0.2-0.8c-0.1-0.1-0.2-0.2-0.3-0.2c-0.1,0-0.2-0.1-0.4-0.1L231.8,9.7z M236.1,11h-1.3v1h1.5v0.4h-2.1V9.2h2
			v0.4h-1.5v0.9h1.3L236.1,11z M237.3,12h1.4v0.4h-2V9.2h0.6L237.3,12z M239.8,12.5h-0.5V9.2h0.6L239.8,12.5z M241.6,11.8l0.8-2.5
			h0.6l-1.2,3.2h-0.5l-1.1-3.2h0.6L241.6,11.8z M245.3,11h-1.3v1h1.5v0.4h-2.1V9.2h2.1v0.4h-1.5v0.9h1.3V11z M247.1,11.2h-0.6v1.2
			h-0.6V9.2h1.1c0.3,0,0.6,0.1,0.9,0.3c0.2,0.2,0.3,0.4,0.3,0.7c0,0.2,0,0.4-0.1,0.5c-0.1,0.1-0.3,0.3-0.4,0.3l0.7,1.3h-0.6
			L247.1,11.2z M246.5,10.8h0.6c0.2,0,0.3,0,0.4-0.1c0.1-0.1,0.1-0.1,0.1-0.2c0-0.1,0-0.1,0-0.2c0-0.1,0-0.1,0-0.2
			c0-0.1-0.1-0.1-0.1-0.2c-0.1,0-0.1-0.1-0.2-0.1c-0.1,0-0.2,0-0.2,0h-0.6L246.5,10.8z M249.7,10.8l0.7-1.5h0.6l-1.1,2v1.2h-0.6
			v-1.1l-1.1-2h0.6L249.7,10.8z"/>
		<path class="st2" d="M224.7,6.5L224.5,7h2.6c-0.1,0.3-0.2,0.6-0.5,0.8c-0.4,0.3-1,0.4-1.5,0.4h-0.5v0.6c0.2,0,0.5,0.1,0.7,0.2
			c0.2,0.2,0.4,0.3,0.5,0.6l1.8,2.4h1.1l-2.1-2.7c-0.1-0.2-0.3-0.4-0.5-0.6c0.5-0.1,0.9-0.3,1.3-0.6c0.3-0.3,0.5-0.6,0.5-1h1.1
			l0.2-0.5h-1.3c0-0.2-0.1-0.5-0.2-0.7c-0.1-0.2-0.3-0.4-0.5-0.6h1.8l0.2-0.5h-4.6l-0.2,0.5h0.9c0.4,0,0.9,0.1,1.2,0.4
			c0.2,0.2,0.4,0.5,0.4,0.9L224.7,6.5z"/>
	</g>
	<g>
		<path class="st0" d="M215.9,0h-34c-0.6,0-1,0.4-1,1l0,0v14.7c0,0.6,0.4,1,1,1h34c0.3,0,0.5-0.1,0.7-0.3c0.2-0.2,0.3-0.4,0.3-0.7V1
			c0-0.3-0.1-0.5-0.3-0.7C216.4,0.1,216.2,0,215.9,0L215.9,0z"/>
		<path class="st1" d="M196.4,7.4h-0.6l-1.4-2.3v2.3h-0.6V4.2h0.6l1.4,2.3V4.2h0.6V7.4z M199,6h-1.3v1h1.5v0.4h-2.1V4.2h2.1v0.4
			h-1.5v0.9h1.3L199,6z M202,4.7h-1v2.8h-0.6V4.7h-1V4.2h2.5L202,4.7z M193.9,12.4V9.2h1.1c0.3,0,0.6,0.1,0.8,0.2
			c0.1,0.1,0.2,0.2,0.2,0.3c0,0.1,0.1,0.2,0.1,0.4c0,0.1,0,0.3-0.1,0.4c-0.1,0.1-0.2,0.2-0.3,0.3c0.2,0,0.3,0.1,0.4,0.3
			c0.1,0.1,0.2,0.3,0.1,0.5c0,0.1,0,0.3-0.1,0.4c-0.1,0.1-0.1,0.2-0.2,0.3c-0.2,0.2-0.5,0.3-0.8,0.2L193.9,12.4z M194.5,11v1h0.6
			c0.1,0,0.3,0,0.4-0.1c0,0,0.1-0.1,0.1-0.2c0-0.1,0-0.1,0-0.2c0-0.1,0-0.1,0-0.2c0-0.1-0.2-0.2-0.3-0.3c-0.1,0-0.1,0-0.2,0
			L194.5,11z M194.5,10.6h0.6c0.1,0,0.3,0,0.4-0.1c0.1,0,0.1-0.1,0.1-0.1c0-0.1,0-0.1,0-0.2c0-0.1,0-0.1,0-0.2
			c0-0.1-0.1-0.1-0.1-0.2c-0.1-0.1-0.3-0.1-0.4-0.1h-0.5V10.6z M198.6,11.7h-1.2l-0.3,0.7h-0.6l1.2-3.2h0.5l1.2,3.2h-0.6L198.6,11.7
			z M197.6,11.2h0.9L198,9.9L197.6,11.2z M202.3,12.4h-0.6l-1.4-2.3v2.3h-0.6V9.2h0.6l1.4,2.3V9.2h0.6V12.4z M203.9,11l-0.4,0.4v1
			h-0.6V9.2h0.6v1.5l0.3-0.4l0.9-1.1h0.7l-1.2,1.4l1.3,1.8h-0.7L203.9,11z M206.4,12.4h-0.6V9.2h0.6V12.4z M209.6,12.4h-0.6
			l-1.4-2.3v2.3h-0.6V9.2h0.6l1.4,2.3V9.2h0.6V12.4z M212.7,12c-0.1,0.2-0.3,0.3-0.5,0.4c-0.2,0.1-0.5,0.1-0.7,0.1
			c-0.2,0-0.5-0.1-0.7-0.2c-0.2-0.1-0.4-0.3-0.5-0.5c-0.1-0.2-0.2-0.5-0.2-0.8v-0.3c0-0.4,0.1-0.8,0.4-1.1c0.1-0.1,0.3-0.3,0.4-0.3
			c0.2-0.1,0.4-0.1,0.6-0.1c0.3,0,0.6,0.1,0.9,0.3c0.2,0.2,0.4,0.5,0.4,0.8h-0.5c0-0.1,0-0.2-0.1-0.2c0-0.1-0.1-0.1-0.2-0.2
			c-0.1-0.1-0.1-0.1-0.2-0.1c-0.1,0-0.2,0-0.3,0c-0.1,0-0.2,0-0.3,0.1c-0.1,0-0.2,0.1-0.3,0.2c-0.1,0.2-0.2,0.5-0.2,0.8v0.3
			c0,0.3,0.1,0.6,0.2,0.8c0.1,0.1,0.2,0.2,0.3,0.2c0.1,0,0.2,0.1,0.3,0.1c0.1,0,0.2,0,0.3,0c0.1,0,0.2-0.1,0.3-0.2v-0.6h-0.7v-0.4
			h1.2L212.7,12z"/>
		<path d="M187.4,3.6c0.3,0,0.5,0.1,0.7,0.3c0.2,0.2,0.3,0.4,0.3,0.7v1c0.6,0.1,1.2,0.3,1.6,0.8c0.4,0.5,0.7,1,0.7,1.7v2.6
			c0,0.3-0.1,0.6-0.2,0.9c-0.1,0.3-0.3,0.6-0.5,0.8c-0.4,0.5-1.1,0.7-1.7,0.7c-0.3,0-0.6-0.1-0.9-0.2c-0.3-0.1-0.6-0.3-0.8-0.5
			c-0.2-0.2-0.4-0.5-0.5-0.8c-0.1-0.3-0.2-0.6-0.2-0.9V8.1c0-0.6,0.2-1.2,0.6-1.7c0.4-0.4,0.9-0.7,1.5-0.8v-1c0-0.1,0-0.1,0-0.2
			c0-0.1-0.1-0.1-0.1-0.2c0-0.1-0.1-0.1-0.2-0.1h-0.2c-0.1,0-0.1,0-0.2,0c-0.1,0-0.1,0.1-0.2,0.1c-0.1,0-0.1,0.1-0.1,0.2
			c0,0.1,0,0.1,0,0.2v0.2c0,0.3-0.1,0.6-0.3,0.8c-0.2,0.2-0.4,0.3-0.7,0.3c-0.3,0-0.5-0.1-0.7-0.3c-0.2-0.2-0.3-0.4-0.3-0.7
			c0,0,0-0.1,0-0.1c0,0,0-0.1,0.1-0.1h0.2l0.1,0.1c0,0,0,0.1,0,0.1c0,0.1,0,0.1,0,0.2c0,0.1,0.1,0.1,0.1,0.2
			c0.1,0.1,0.1,0.1,0.2,0.1c0.1,0,0.1,0,0.2,0c0.1,0,0.1,0,0.2,0c0.1,0,0.1-0.1,0.2-0.1c0-0.1,0.1-0.1,0.1-0.2c0-0.1,0-0.1,0-0.2
			V4.6c0-0.3,0.1-0.5,0.3-0.7C186.9,3.7,187.1,3.6,187.4,3.6L187.4,3.6z M188.2,6.6H188l-0.1,0.1c0,0,0,0.1-0.1,0.1v1.3
			c0,0,0,0.1,0,0.1c0,0,0,0.1,0.1,0.1c0,0,0.1,0.1,0.1,0.1h0.1h0.1l0.1-0.1c0,0,0.1-0.1,0.1-0.1c0,0,0-0.1,0-0.1V7c0,0,0-0.1,0-0.1
			c0,0,0-0.1-0.1-0.1l-0.1-0.1L188.2,6.6L188.2,6.6z"/>
	</g>
	<g>
		<path class="st0" d="M72,0H42c-0.3,0-0.5,0.1-0.7,0.3C41.1,0.5,41,0.7,41,1v14.7c0,0.3,0.1,0.5,0.3,0.7c0.2,0.2,0.4,0.3,0.7,0.3
			h30c0.6,0,1-0.4,1-1V1C73,0.4,72.5,0,72,0z"/>
		<path class="st3" d="M45.7,9.9c0,0,0.1-0.6,0.5-2c0.3-1.1,0.6-2.1,0.6-2.2l0.1-0.3h1.2c1.4,0,1.6,0,1.8,0.2c0.4,0.2,0.5,0.6,0.4,1
			c0,0,0,0,0,0c-0.1,0.4-0.4,0.8-0.8,1.1c-0.1,0.1-0.2,0.1-0.2,0.1s0,0.1,0.1,0.2C49.6,8,49.6,8,49.7,8.1c0.1,0.3,0.1,0.5,0,0.8
			c-0.1,0.2-0.1,0.4-0.1,0.6v0.3H49c-0.2,0-0.4,0-0.6,0c-0.1-0.1,0-0.2,0-0.6s0.1-0.6,0-0.7s-0.2-0.2-0.6-0.2h-0.4
			c0,0-0.2,0.3-0.3,0.9l-0.2,0.6L45.7,9.9L45.7,9.9z M48.7,7.4C48.9,7.3,49,7.1,49,6.8c0-0.1,0-0.1,0-0.2c-0.1-0.1-0.3-0.1-0.8-0.1
			h-0.4l-0.1,0.2c-0.1,0.2-0.1,0.4-0.2,0.7c0,0,0,0.1,0.1,0.1C48.1,7.4,48.4,7.4,48.7,7.4L48.7,7.4z M50.6,10
			c-0.2-0.1-0.3-0.2-0.4-0.3c-0.1-0.3,0-0.9,0.4-2.3l0.2-0.6h0.5c0.2,0,0.3,0,0.5,0h0.1L51.8,7c-0.2,0.6-0.4,1.4-0.4,1.7
			c0,0.1,0,0.2,0,0.4c0,0.1,0.4,0.2,0.6,0.1s0.3-0.3,0.8-1.9c0-0.2,0.1-0.3,0.2-0.4l0.1-0.1h1c0,0-0.6,2.2-0.8,3.1v0.1h-1
			c0-0.1,0-0.1,0-0.1c0.1-0.3,0-0.3-0.4,0c-0.2,0.2-0.5,0.3-0.8,0.3C50.9,10.1,50.8,10.1,50.6,10L50.6,10z M53.9,9.9
			c0.1-0.8,0.3-1.5,0.6-2.2l0.6-2.2h1c1.3,0,1.6,0,1.8,0.2c0.2,0.1,0.3,0.2,0.4,0.4c0.1,0.4,0.1,0.7,0,1.1c-0.1,0.3-0.3,0.6-0.5,0.8
			c-0.2,0.2-0.5,0.4-0.8,0.5c-0.2,0-0.5,0.1-0.7,0.1c-0.9,0.1-0.9,0-0.9,0.2S55.3,9,55.2,9.3l-0.2,0.6L53.9,9.9L53.9,9.9z M56.6,7.5
			c0.1,0,0.2,0,0.3-0.1c0.1-0.1,0.2-0.1,0.2-0.2c0.1-0.1,0.1-0.2,0.1-0.3c0-0.1,0-0.2,0-0.3c-0.1-0.1-0.2-0.2-0.7-0.2h-0.5
			c-0.1,0.3-0.2,0.6-0.2,0.9c0,0,0,0.1,0,0.1C56.1,7.5,56.4,7.5,56.6,7.5L56.6,7.5z M58.4,10C58,9.8,57.9,9.6,58,9.1
			c0.2-0.7,0.5-0.9,1.7-1.1c0.7-0.1,0.9-0.2,1-0.5s-0.1-0.3-0.4-0.3c-0.1,0-0.2,0-0.3,0c-0.1,0-0.2,0.1-0.2,0.1l-0.2,0.1h-0.4
			c-0.5,0-0.6,0-0.6-0.1c0.1-0.2,0.2-0.3,0.3-0.5c0.2-0.2,0.4-0.3,0.7-0.3c0.6-0.1,1.2-0.1,1.8,0c0.2,0.1,0.3,0.2,0.4,0.3
			c0.1,0.1,0,0.3-0.3,1.5c-0.2,0.6-0.3,1.2-0.3,1.2v0.1h-1l-0.1-0.1c-0.1-0.2-0.1-0.2-0.5,0c-0.3,0.1-0.6,0.2-0.9,0.2
			c-0.2,0-0.3,0-0.5-0.1L58.4,10z M60,9.3c0.1-0.1,0.2-0.2,0.3-0.3c0.1-0.1,0.1-0.3,0.2-0.4V8.5h-0.2c-0.3,0-0.6,0.1-0.8,0.3
			c-0.1,0-0.1,0.1-0.2,0.1c0,0.1-0.1,0.1-0.1,0.2c0,0.1,0,0.2,0.1,0.2C59.5,9.4,59.8,9.4,60,9.3L60,9.3z M61.6,11.3
			c-0.1,0-0.1-0.1,0-0.4s0.1-0.4,0.4-0.5s0.4-0.1,0.5-0.2c0.1-0.7,0.1-1.5,0-2.2c0-0.4,0-0.8,0-1.3h1.1v1c0,0.3,0,0.7,0,1
			c0.1,0.1,0.3-0.3,1.1-1.8l0.1-0.2h0.5c0.2,0,0.3,0,0.5,0c0,0-0.7,1.3-1.4,2.5c-1,1.7-1.2,2-1.7,2.1C62.4,11.3,62,11.3,61.6,11.3
			L61.6,11.3z"/>
		<path class="st4" d="M66.1,10.9l1.4-5.1l1.3,2.6L66.1,10.9z"/>
		<path class="st5" d="M65.2,10.9l1.4-5.1L68,8.4L65.2,10.9z"/>
	</g>
	<g>
		<path class="st6" d="M176.4,0.3h-28.9c-0.7,0-1.2,0.6-1.2,1.2v13.5c0,0.7,0.6,1.2,1.2,1.2h28.9c0.3,0,0.6-0.1,0.9-0.4
			c0.2-0.2,0.4-0.5,0.4-0.9V1.6c0-0.3-0.1-0.6-0.4-0.9C177,0.5,176.7,0.3,176.4,0.3z"/>
		<path class="st7" d="M157.4,11.8h19c0.2,0,0.3,0,0.5-0.1c0.3-0.1,0.5-0.4,0.7-0.7c0.1-0.1,0.1-0.3,0.1-0.5V4.8
			C177.6,4.8,170.5,9.7,157.4,11.8L157.4,11.8z"/>
		<path class="st8" d="M151,9.2c-0.3,0.2-0.6,0.3-1,0.3h-0.2V7.1h0.2c0.2,0,0.4,0,0.5,0.1c0.2,0.1,0.3,0.1,0.5,0.3
			c0.1,0.1,0.2,0.3,0.3,0.4c0.1,0.2,0.1,0.3,0.1,0.5c0,0.2,0,0.3-0.1,0.5C151.2,9,151.1,9.1,151,9.2z M150.1,6.5H149v3.7h1.1
			c0.5,0,1-0.1,1.4-0.4c0.2-0.2,0.4-0.4,0.5-0.6c0.1-0.2,0.2-0.5,0.2-0.8c0-0.3-0.1-0.5-0.2-0.7c-0.1-0.2-0.3-0.4-0.4-0.6
			c-0.2-0.2-0.4-0.3-0.6-0.4C150.7,6.5,150.4,6.5,150.1,6.5L150.1,6.5z M152.5,6.5h0.7v3.7h-0.7V6.5z M155,7.9
			c-0.4-0.2-0.6-0.3-0.6-0.5S154.7,7,155,7c0.1,0,0.2,0,0.3,0.1c0.1,0.1,0.2,0.1,0.3,0.2l0.4-0.5c-0.3-0.3-0.7-0.4-1.1-0.4
			c-0.3,0-0.6,0.1-0.8,0.3c-0.2,0.2-0.4,0.5-0.4,0.7c0,0.5,0.2,0.8,0.9,1c0.2,0.1,0.3,0.1,0.5,0.2c0.1,0,0.1,0.1,0.2,0.2
			c0,0.1,0.1,0.1,0.1,0.2c0,0.1,0,0.1-0.1,0.2c0,0.1-0.1,0.1-0.1,0.2c0,0.1-0.1,0.1-0.2,0.1c-0.1,0-0.1,0-0.2,0
			c-0.2,0-0.3,0-0.5-0.1c-0.1-0.1-0.3-0.2-0.3-0.4l-0.5,0.4c0.1,0.2,0.3,0.4,0.6,0.5c0.2,0.1,0.5,0.2,0.8,0.2c0.2,0,0.3,0,0.5-0.1
			c0.2-0.1,0.3-0.1,0.4-0.3c0.1-0.1,0.2-0.2,0.3-0.4c0.1-0.2,0.1-0.3,0.1-0.5c0-0.6-0.3-0.8-1.1-1.2L155,7.9z M156.4,8.3
			c0,0.3,0.1,0.5,0.1,0.8c0.1,0.2,0.3,0.5,0.4,0.6c0.2,0.2,0.4,0.3,0.6,0.4c0.2,0.1,0.5,0.1,0.8,0.1c0.3,0,0.6-0.1,0.9-0.2V9.2
			c-0.1,0.1-0.3,0.2-0.4,0.3c-0.2,0.1-0.3,0.1-0.5,0.1c-0.3,0-0.7-0.1-0.9-0.4c-0.1-0.1-0.2-0.3-0.3-0.4c-0.1-0.2-0.1-0.3-0.1-0.5
			c0-0.2,0-0.3,0.1-0.5c0.1-0.1,0.2-0.3,0.3-0.4c0.1-0.1,0.3-0.2,0.4-0.3c0.2-0.1,0.3-0.1,0.5-0.1c0.2,0,0.3,0,0.5,0.1
			c0.2,0.1,0.3,0.2,0.4,0.3V6.6c-0.3-0.1-0.6-0.2-0.9-0.2c-0.5,0-1,0.2-1.4,0.6C156.6,7.3,156.4,7.8,156.4,8.3L156.4,8.3z M165.3,9
			l-1-2.5h-0.8l1.6,3.8h0.4l1.6-3.8h-0.8L165.3,9L165.3,9z M167.4,10.2h2.1V9.5h-1.4v-1h1.3V7.9h-1.3V7.1h1.4V6.5h-2.1V10.2z
			 M171,8.2h-0.2V7.1h0.2c0.5,0,0.7,0.2,0.7,0.5S171.5,8.2,171,8.2L171,8.2z M172.5,7.6c0-0.7-0.5-1.1-1.3-1.1H170v3.7h0.7V8.7h0.1
			l1,1.5h0.9l-1.2-1.6c0.2,0,0.5-0.2,0.6-0.3C172.4,8.1,172.5,7.9,172.5,7.6L172.5,7.6z"/>
		<path class="st9" d="M163.6,8.3c0,1.1-0.9,2-2,2l0,0c-1.1,0-2-0.9-2-2s0.9-2,2-2S163.6,7.2,163.6,8.3z"/>
	</g>
	<g>
		<path class="st0" d="M107,0H77c-0.6,0-1,0.4-1,1l0,0v14.7c0,0.6,0.4,1,1,1h30c0.3,0,0.5-0.1,0.7-0.3c0.2-0.2,0.3-0.4,0.3-0.7V1
			c0-0.3-0.1-0.5-0.3-0.7C107.5,0.1,107.2,0,107,0z"/>
		<path class="st10" d="M88.4,13.3c2.8,0,5-2.3,4.9-5.1c0-0.3,0-0.6-0.1-0.9c-0.4-2-2-3.5-3.9-3.9c-2-0.4-4,0.5-5.1,2.1
			c-0.5,0.8-0.8,1.8-0.8,2.8c0,0.7,0.1,1.3,0.4,1.9c0.3,0.6,0.6,1.2,1.1,1.6c0.5,0.5,1,0.8,1.6,1.1C87.1,13.2,87.8,13.3,88.4,13.3z"
			/>
		<path class="st11" d="M95.5,13.3c2.8,0,5-2.2,5-5c0-0.3,0-0.7-0.1-1c-0.4-2-2-3.5-3.9-3.9c-1-0.2-2-0.1-2.9,0.3
			c-2.6,1.1-3.8,4-2.7,6.5C91.7,12.1,93.5,13.3,95.5,13.3z"/>
		<path class="st12" d="M92,11.9c0.9-1,1.4-2.2,1.5-3.6C93.4,7,92.9,5.7,92,4.7c-0.5,0.5-0.9,1-1.1,1.6c-0.3,0.6-0.4,1.3-0.4,2
			C90.4,9.7,91,11,92,11.9L92,11.9z"/>
	</g>
	<g>
		<path class="st0" d="M141.9,0h-30c-0.3,0-0.5,0.1-0.7,0.3c-0.2,0.2-0.3,0.4-0.3,0.7v14.7c0,0.3,0.1,0.5,0.3,0.7
			c0.2,0.2,0.4,0.3,0.7,0.3h30c0.3,0,0.5-0.1,0.7-0.3c0.2-0.2,0.3-0.4,0.3-0.7V1c0-0.3-0.1-0.5-0.3-0.7C142.5,0.1,142.2,0,141.9,0z"
			/>
		<path class="st13" d="M124.4,5.1l-2.8,6.6h-1.8l-1.3-5.3c0-0.1-0.1-0.2-0.1-0.3c-0.1-0.1-0.2-0.2-0.3-0.2
			c-0.5-0.2-1.1-0.4-1.7-0.5V5.1h2.9c0.2,0,0.4,0.1,0.5,0.2c0.1,0.1,0.2,0.3,0.3,0.5l0.7,3.8l1.8-4.5L124.4,5.1z M131.4,9.5
			c0-1.7-2.4-1.8-2.4-2.6c0-0.2,0.2-0.5,0.7-0.5c0.6-0.1,1.1,0,1.7,0.3l0.3-1.4c-0.5-0.2-1-0.3-1.6-0.3c-1.7,0-2.9,0.9-2.9,2.2
			c0,0.9,0.8,1.5,1.5,1.8c0.7,0.3,0.9,0.5,0.9,0.8s-0.5,0.6-1,0.6c-0.6,0-1.2-0.1-1.7-0.4l-0.3,1.4c0.6,0.2,1.2,0.3,1.9,0.4
			C130.3,11.7,131.5,10.8,131.4,9.5L131.4,9.5z M135.9,11.6h1.6l-1.4-6.6h-1.4c-0.2,0-0.3,0-0.4,0.1c-0.1,0.1-0.2,0.2-0.3,0.3
			l-2.6,6.1h1.8l0.4-1h2.2L135.9,11.6z M134,9.3l0.9-2.5l0.5,2.5H134z M126.8,5.1l-1.4,6.6h-1.7l1.4-6.6L126.8,5.1z"/>
	</g>
	<g>
		<path class="st0" d="M37,0H7C6.7,0,6.5,0.1,6.3,0.4C6.1,0.5,6,0.8,6,1v14.7c0,0.3,0.1,0.5,0.3,0.7c0.2,0.2,0.4,0.3,0.7,0.3h30
			c0.6,0,1-0.4,1-1V1c0-0.3-0.1-0.5-0.3-0.7C37.5,0.1,37.3,0,37,0z"/>
		<path class="st14" d="M29.3,5.4l0.2-0.2c0.6-0.6,1.6-0.6,2.2,0.1c0,0,0.1,0.1,0.1,0.1c0.1,0.1,0.1,0.1,0.2,0l0.1-0.1
			c0.6-0.6,1.6-0.6,2.3,0c0.3,0.3,0.5,0.7,0.5,1.2c0,1.5,0,3.1,0,4.6c0,0.5-0.3,0.8-0.7,0.9c0,0-0.1,0-0.1,0c-0.2,0-0.4,0-0.6,0
			s-0.3,0-0.3-0.3c0-1.5,0-3,0-4.5V6.9c0-0.3-0.1-0.5-0.5-0.5c-0.3,0-0.5,0.2-0.5,0.4c0,0,0,0,0,0c0,0.1,0,0.1,0,0.2V11
			c0,0.4-0.3,0.8-0.7,0.9c-0.1,0-0.1,0-0.2,0c-0.3,0-0.7,0.1-0.8-0.1s0-0.5,0-0.8V7c0-0.5-0.3-0.7-0.7-0.6c-0.2,0.1-0.4,0.3-0.3,0.6
			c0,1.2,0,2.5,0,3.7V11c0,0.4-0.3,0.8-0.8,0.9c0,0-0.1,0-0.1,0c-0.2,0-0.4,0-0.6,0s-0.3,0-0.3-0.3c0-2.1,0-4.2,0-6.3V5
			c0-0.1,0-0.2,0.1-0.2h1.5c0.1,0,0.2,0,0.2,0.2S29.3,5.2,29.3,5.4z"/>
		<path class="st15" d="M18,8.2v2.2c0.1,0.7-0.4,1.4-1.1,1.4c-0.1,0-0.2,0-0.3,0c-0.4,0-0.8,0-1.2,0c-0.8,0-1.5-0.6-1.5-1.4
			c0,0,0,0,0,0c0-0.6,0-1.2,0-1.8c0-0.8,0.7-1.5,1.6-1.5H16c0.2,0,0.3-0.1,0.3-0.3S16.2,6.5,16,6.5h-0.7c-0.4,0.1-0.9-0.3-0.9-0.7
			c0-0.1,0-0.1,0-0.2c0-0.2-0.1-0.6,0.1-0.7s0.4,0,0.7,0h1.8c0.6-0.1,1,0.4,1.1,0.9c0,0,0,0.1,0,0.1C18,6.7,18,7.4,18,8.2z
			 M16.4,9.4V9.1c0-0.5,0-0.5-0.5-0.5c-0.2,0-0.4,0.1-0.4,0.4c0,0,0,0,0,0.1v0.7c0,0.4,0.2,0.5,0.7,0.5c0.5,0,0.2-0.3,0.2-0.4
			C16.4,9.7,16.4,9.5,16.4,9.4z"/>
		<path class="st15" d="M22.7,7.6c0,0.8,0,1.6,0,2.4c0.1,0.6-0.2,1.2-0.7,1.5c-0.2,0.1-0.5,0.2-0.8,0.2h-1.9c-0.1,0-0.2,0-0.2-0.2
			s0-0.4,0-0.7c0-0.4,0.3-0.8,0.8-0.8h0.8c0.2,0,0.3-0.1,0.3-0.3S21,9.5,20.7,9.5c-0.4,0-0.7,0-1.1-0.1c-0.6-0.2-1.1-0.7-1.1-1.4
			c0-1,0-2.1,0-3.1c0-0.1,0-0.2,0.1-0.2H20c0.2,0,0.2,0.1,0.2,0.2v2.3c0,0.4,0.2,0.5,0.5,0.5c0.3,0,0.5-0.1,0.5-0.5
			c0-0.8,0-1.6,0-2.4c0-0.2,0.1-0.2,0.2-0.2c0.4,0,0.8,0,1.2,0c0.2,0,0.3,0.1,0.2,0.3C22.7,5.9,22.7,6.8,22.7,7.6z"/>
		<path class="st15" d="M9.1,8.8V6.2c-0.1-0.7,0.5-1.3,1.1-1.4c0.1,0,0.2,0,0.2,0c0.6-0.1,1.1-0.1,1.7,0c0.7,0.1,1.2,0.7,1.2,1.5
			v2.3c0.1,0.8-0.5,1.5-1.3,1.6c-0.1,0-0.1,0-0.2,0h-0.9c-0.1,0-0.2,0-0.2,0.2c0,0.2,0,0.4,0,0.6c0,0.4-0.3,0.8-0.8,0.8c0,0,0,0,0,0
			c-0.3,0-0.6,0.1-0.8,0s0-0.5,0-0.7C9.1,10.3,9.1,9.6,9.1,8.8z M10.8,7.5V8c0,0.6,0,0.6,0.6,0.6c0.2,0,0.4-0.1,0.4-0.3
			c0,0,0,0,0-0.1c0-0.3,0-0.6,0-0.9c0-0.9-0.1-0.8-0.8-0.8c-0.1,0-0.2,0-0.2,0.2C10.8,6.9,10.8,7.2,10.8,7.5z"/>
		<path class="st14" d="M24.2,9.5c0-0.7,0-1.4,0-2.1c0-0.2,0-0.2-0.2-0.2s-0.6,0.1-0.7,0s0-0.5-0.1-0.7V6.3c0-0.3-0.1-0.5,0-0.7
			s0.4-0.1,0.7-0.1C24.4,5.3,24.7,5,25,4.7c0.2-0.2,0.4-0.4,0.7-0.5c0.2,0,0.3,0,0.3,0.2s0,0.6,0,0.9c0,0.1,0,0.2,0.2,0.2h0.6
			c0.1,0,0.2,0,0.2,0.2c0,0.4,0,0.9,0,1.3c0,0.1,0,0.2-0.2,0.2h-0.1c-0.2,0-0.6-0.1-0.7,0.1s0,0.4,0,0.7c0,1.5,0,2.9,0,4.3
			c0,0.2,0,0.3-0.3,0.3h-0.6c-0.5,0-1-0.4-1-0.9c0,0,0-0.1,0-0.1L24.2,9.5z"/>
	</g>
</g>
</svg>
